<svg width="36" height="36" viewBox="0 0 36 36" fill="none" xmlns="http://www.w3.org/2000/svg">
<path d="M36 15.1142C36 12.1731 34.1323 9.41775 31.2819 8.70776C30.0709 8.40619 28.8163 8.44464 27.6715 8.80911C26.3202 7.3287 24.3761 6.39844 22.2187 6.39844C20.6932 6.39844 19.2189 6.86948 17.9837 7.73575C16.773 6.89365 15.2992 6.39844 13.7109 6.39844C11.6279 6.39844 9.64125 7.28915 8.25038 8.81378C7.35114 8.52566 6.37473 8.43173 5.37992 8.5773C2.21585 9.03982 -0.046509 11.8466 0.00073226 15.2518C0.0221556 16.7723 0.607178 18.1112 1.57288 19.1456C0.565155 20.3431 -0.0237124 21.9364 0.00073226 23.6893C0.0485228 27.0574 2.94947 29.6015 6.23658 29.6015H29.6872C31.3113 29.6015 32.8639 29 34.0589 27.9077C35.2974 26.7756 35.9868 25.2603 35.9997 23.6417L36 23.5516C36 22.1226 35.5525 20.7026 34.7404 19.5535C34.6357 19.4054 34.5253 19.2626 34.4097 19.1255C35.4199 18.0486 35.9879 16.6701 35.9997 15.2042L36 15.1142ZM5.68507 10.6644C7.91914 10.3379 10.0175 11.799 10.4625 13.9911L12.5296 13.5714C12.2178 12.0352 11.3667 10.7386 10.2073 9.84182C11.1645 8.99341 12.4117 8.50781 13.7109 8.50781C16.6574 8.50781 19.0546 10.8734 19.0546 13.7812H21.164C21.164 12.0622 20.5677 10.4785 19.5693 9.22247C20.3683 8.75775 21.2799 8.50781 22.2187 8.50781C25.1265 8.50781 27.4921 10.8734 27.4921 13.7812H29.6015C29.6015 12.6735 29.3557 11.6222 28.9168 10.6782C29.523 10.5796 30.1618 10.6026 30.7718 10.7548C32.5791 11.205 33.8906 13.0383 33.8906 15.1142L33.8903 15.1864C33.8826 16.1477 33.4898 17.056 32.7933 17.7619C32.3198 17.4864 31.812 17.2774 31.2819 17.1455C30.0709 16.8437 28.8163 16.8824 27.6715 17.2466C26.3202 15.7662 24.3761 14.8359 22.2187 14.8359C20.6932 14.8359 19.2189 15.307 17.9837 16.1732C16.773 15.3311 15.2992 14.8359 13.7109 14.8359C11.6279 14.8359 9.64097 15.7266 8.25038 17.2515C7.35114 16.9632 6.37473 16.8692 5.37992 17.0148C4.58451 17.131 3.8465 17.3955 3.1876 17.7803C2.52814 17.1076 2.12412 16.2337 2.10984 15.2221C2.07743 12.8886 3.58118 10.972 5.68507 10.6644ZM33.8903 23.6239C33.8735 25.7206 31.9487 27.4922 29.6872 27.4922H6.23658C4.05195 27.4922 2.1406 25.8445 2.10984 23.6596C2.0777 21.3264 3.58118 19.4095 5.68507 19.1019C7.91914 18.7756 10.0175 20.2365 10.4625 22.4286L12.5296 22.0089C12.2178 20.473 11.3664 19.1763 10.2073 18.2796C11.1645 17.4309 12.4115 16.9453 13.7109 16.9453C16.6574 16.9453 19.0546 19.3109 19.0546 22.2187H21.164C21.164 20.4997 20.5677 18.916 19.5693 17.66C20.3683 17.1952 21.2799 16.9453 22.2187 16.9453C25.1265 16.9453 27.4921 19.3109 27.4921 22.2187H29.6015C29.6015 21.111 29.3557 20.0596 28.9168 19.1156C29.523 19.017 30.1618 19.0401 30.7718 19.1923C32.5791 19.6424 33.8906 21.4758 33.8906 23.5516L33.8903 23.6239Z" fill="white"/>
</svg>
