<svg width="36" height="36" viewBox="0 0 36 36" fill="none" xmlns="http://www.w3.org/2000/svg">
<path d="M35.5415 11.503L25.3864 2.26883C25.0384 1.95247 24.5409 1.86247 24.1049 2.03607L0.774858 11.3186C0.273094 11.5183 -0.0332761 12.0187 0.00393412 12.5462C0.0022949 12.5725 0 12.5984 0 12.6248V17.883C0 18.5622 0.550285 19.1124 1.22941 19.1124C3.54137 19.1124 5.42188 20.9933 5.42188 23.3051C5.42188 25.6169 3.54137 27.498 1.22941 27.498C0.550285 27.498 0 28.0483 0 28.7274V32.8217C0 33.5008 0.550285 34.0511 1.22941 34.0511H34.7675C35.4466 34.0511 35.9969 33.5008 35.9969 32.8217V12.6248C35.9969 12.6079 35.9952 12.5913 35.9943 12.5744C35.9977 12.5369 36 12.4992 36 12.4608C36 12.0736 35.821 11.7284 35.5415 11.503ZM24.3001 4.60455L31.5879 11.2316H7.64482L24.3001 4.60455ZM33.5381 31.5923H2.45883V29.8428C5.54105 29.2644 7.8807 26.5528 7.8807 23.3051C7.8807 20.0573 5.54105 17.3459 2.45883 16.7675V13.6902H33.5381V31.5923Z" fill="white"/>
<path d="M28.5378 21.2695C29.4463 21.2695 30.1827 20.533 30.1827 19.6245C30.1827 18.7161 29.4463 17.9796 28.5378 17.9796C27.6293 17.9796 26.8928 18.7161 26.8928 19.6245C26.8928 20.533 27.6293 21.2695 28.5378 21.2695Z" fill="white"/>
<path d="M12.56 22.8414C13.5051 22.8414 14.2713 22.0752 14.2713 21.13C14.2713 20.1849 13.5051 19.4187 12.56 19.4187C11.6148 19.4187 10.8486 20.1849 10.8486 21.13C10.8486 22.0752 11.6148 22.8414 12.56 22.8414Z" fill="white"/>
<path d="M24.64 27.7724C25.93 27.7724 26.9758 26.7266 26.9758 25.4366C26.9758 24.1465 25.93 23.1007 24.64 23.1007C23.3499 23.1007 22.3041 24.1465 22.3041 25.4366C22.3041 26.7266 23.3499 27.7724 24.64 27.7724Z" fill="white"/>
<path d="M16.0809 29.2871C17.1505 29.2871 18.0176 28.42 18.0176 27.3503C18.0176 26.2807 17.1505 25.4136 16.0809 25.4136C15.0113 25.4136 14.1442 26.2807 14.1442 27.3503C14.1442 28.42 15.0113 29.2871 16.0809 29.2871Z" fill="white"/>
<path d="M20.1386 19.9847C21.2561 19.9847 22.162 19.0787 22.162 17.9612C22.162 16.8437 21.2561 15.9378 20.1386 15.9378C19.021 15.9378 18.1151 16.8437 18.1151 17.9612C18.1151 19.0787 19.021 19.9847 20.1386 19.9847Z" fill="white"/>
</svg>
