<svg width="24" height="24" viewBox="0 0 24 24" fill="none" xmlns="http://www.w3.org/2000/svg">
<path d="M23.208 5.35425C23.1103 4.7009 22.7817 4.10419 22.2818 3.67229C21.7819 3.24038 21.1439 3.00188 20.4832 3H3.51674C2.85613 3.00188 2.21805 3.24038 1.71818 3.67229C1.2183 4.10419 0.889719 4.7009 0.791992 5.35425L12 12.6068L23.208 5.35425Z" fill="#7D8FAB"/>
<path d="M12.4072 14.13C12.2859 14.2084 12.1445 14.2502 12 14.2502C11.8555 14.2502 11.7141 14.2084 11.5927 14.13L0.75 7.11449V18.2332C0.750794 18.9668 1.04255 19.67 1.56124 20.1887C2.07993 20.7074 2.78321 20.9992 3.51675 21H20.4832C21.2168 20.9992 21.9201 20.7074 22.4388 20.1887C22.9575 19.67 23.2492 18.9668 23.25 18.2332V7.11374L12.4072 14.13Z" fill="#7D8FAB"/>
</svg>
