<svg width="24" height="24" viewBox="0 0 24 24" fill="none" xmlns="http://www.w3.org/2000/svg">
<path d="M20.0212 3H3.97868C3.57142 3.00032 3.17301 3.11885 2.8318 3.34119C2.49059 3.56353 2.22125 3.88013 2.05647 4.25257C1.89169 4.62501 1.83856 5.03727 1.90352 5.43931C1.96848 5.84136 2.14875 6.21591 2.42243 6.5175L9.37493 14.1638V21.375C9.37499 21.516 9.41478 21.6541 9.48973 21.7734C9.56468 21.8928 9.67175 21.9887 9.79868 22.05C9.90012 22.1 10.0118 22.1257 10.1249 22.125C10.2954 22.1249 10.4607 22.0667 10.5937 21.96L11.9999 20.835L14.3437 18.96C14.4314 18.8898 14.5022 18.8008 14.5509 18.6995C14.5996 18.5982 14.6249 18.4874 14.6249 18.375V14.1638L21.5774 6.5175C21.8511 6.21591 22.0314 5.84136 22.0963 5.43931C22.1613 5.03727 22.1082 4.62501 21.9434 4.25257C21.7786 3.88013 21.5093 3.56353 21.1681 3.34119C20.8269 3.11885 20.4284 3.00032 20.0212 3Z" fill="#303733"/>
</svg>
