<svg width="36" height="36" viewBox="0 0 36 36" fill="none" xmlns="http://www.w3.org/2000/svg">
<g clip-path="url(#clip0_0_632)">
<path d="M35.8509 17.4462C34.3519 14.8549 32.1963 12.6816 29.6172 11.1612C28.705 10.6235 27.7472 10.1727 26.7574 9.81266C26.25 8.53459 25.4288 7.39602 24.3425 6.49174C22.6304 5.06657 20.4657 4.39368 18.2473 4.5964C16.0289 4.79932 14.0223 5.85393 12.5972 7.56618C12.2048 8.03748 12.2688 8.73758 12.7402 9.12993L14.2584 10.3938C14.0079 10.5187 13.7579 10.6491 13.5085 10.7882C11.7295 11.7813 9.99546 13.1415 8.45197 14.7504L1.65065 10.9628C1.20564 10.715 0.648841 10.8017 0.300513 11.1735C-0.0479549 11.5452 -0.0988611 12.1062 0.177256 12.5344L3.88581 18.2879L0.191248 23.7406C-0.0879626 24.1528 -0.058783 24.7004 0.262755 25.0806C0.584294 25.4607 1.11951 25.5802 1.57218 25.3733L9.13899 21.9131C10.6903 23.368 12.322 24.5506 13.9984 25.434C14.0869 25.4806 14.1754 25.5247 14.2639 25.5695L12.696 26.8746C12.4697 27.063 12.3274 27.3336 12.3007 27.6269C12.2739 27.9201 12.3646 28.212 12.553 28.4383C14.2001 30.4171 16.5766 31.4391 18.9699 31.4391C20.8511 31.4391 22.7428 30.8074 24.2984 29.5126C25.3797 28.6126 26.1982 27.4806 26.7061 26.2099C27.714 25.8467 28.6891 25.3901 29.6169 24.8431C32.196 23.3228 34.3516 21.1495 35.8506 18.5582C36.0499 18.2142 36.0499 17.7902 35.8509 17.4462ZM18.4495 6.80786C20.077 6.65859 21.6653 7.15288 22.9216 8.19857C23.22 8.44691 23.4901 8.72 23.7321 9.01279C22.7717 8.84952 21.7952 8.76613 20.8129 8.76613C19.4044 8.76613 17.9912 8.99359 16.5863 9.44218L15.0909 8.1973C16.0359 7.4072 17.1966 6.92247 18.4495 6.80786ZM22.8779 27.8058C20.576 29.7219 17.2712 29.6585 15.0479 27.8063L16.5746 26.5355C17.9939 27.0025 19.4118 27.2382 20.813 27.2382C21.7778 27.2382 22.737 27.1579 23.6809 27.0003C23.4407 27.2898 23.1731 27.56 22.8779 27.8058ZM20.813 25.0176C16.1063 25.0176 12.1106 21.7489 10.1477 19.8005C9.93507 19.5896 9.65234 19.4782 9.36518 19.4782C9.20916 19.4782 9.0518 19.5112 8.90372 19.5788L4.25242 21.7059L6.13595 18.926C6.38556 18.5575 6.39111 18.0756 6.14994 17.7016L4.44922 15.0631L8.13422 17.1152C8.58865 17.3683 9.15762 17.272 9.50356 16.8837C12.8415 13.1362 16.9636 10.9868 20.813 10.9868C25.9842 10.9868 30.8213 13.6587 33.5907 18.0022C30.8213 22.3457 25.9843 25.0176 20.813 25.0176Z" fill="white"/>
<path d="M26.1862 17.9775C27.1565 17.9775 27.9431 17.1909 27.9431 16.2205C27.9431 15.2502 27.1565 14.4636 26.1862 14.4636C25.2158 14.4636 24.4292 15.2502 24.4292 16.2205C24.4292 17.1909 25.2158 17.9775 26.1862 17.9775Z" fill="white"/>
</g>
<defs>
<clipPath id="clip0_0_632">
<rect width="36" height="36" fill="white"/>
</clipPath>
</defs>
</svg>
