<svg width="24" height="24" viewBox="0 0 24 24" fill="none" xmlns="http://www.w3.org/2000/svg">
<path d="M21.8574 17.4858C20.0734 14.5109 19 13.212 19 10C18.9982 8.31759 18.3909 6.69203 17.2892 5.42049C16.1875 4.14896 14.665 3.31639 13 3.075V3C13 2.73478 12.8946 2.48043 12.7071 2.29289C12.5196 2.10536 12.2652 2 12 2C11.7348 2 11.4804 2.10536 11.2929 2.29289C11.1054 2.48043 11 2.73478 11 3V3.0792C9.32467 3.39644 7.81112 4.28462 6.71711 5.59247C5.6231 6.90033 5.01628 8.54698 5 10.252C5 13.212 3.738 14.826 2.1426 17.4859C2.05166 17.6376 2.00259 17.8108 2.0004 17.9876C1.99822 18.1645 2.04299 18.3388 2.13016 18.4928C2.21733 18.6467 2.34377 18.7747 2.49658 18.8638C2.64939 18.953 2.8231 18.9999 3 19H21C21.1769 19 21.3506 18.953 21.5035 18.8639C21.6563 18.7747 21.7827 18.6467 21.8699 18.4927C21.9571 18.3388 22.0018 18.1645 21.9997 17.9876C21.9975 17.8107 21.9484 17.6375 21.8574 17.4858Z" fill="white"/>
<path d="M14 20H10C9.73478 20 9.48043 20.1054 9.29289 20.2929C9.10536 20.4804 9 20.7348 9 21C9 21.2652 9.10536 21.5196 9.29289 21.7071C9.48043 21.8947 9.73478 22 10 22H14C14.2652 22 14.5196 21.8947 14.7071 21.7071C14.8946 21.5196 15 21.2652 15 21C15 20.7348 14.8946 20.4804 14.7071 20.2929C14.5196 20.1054 14.2652 20 14 20Z" fill="white"/>
</svg>
