<svg width="24" height="24" viewBox="0 0 24 24" fill="none" xmlns="http://www.w3.org/2000/svg">
<path d="M21.403 5.58859C20.8581 4.88127 20.1534 4.31314 19.3466 3.93073C18.5397 3.54832 17.6538 3.36253 16.7613 3.38858C15.8917 3.40754 15.0393 3.63525 14.2761 4.05252C13.5129 4.46979 12.8611 5.06441 12.3758 5.78625C12.2456 5.97851 12.1199 6.17756 12 6.38171C11.88 6.17756 11.7545 5.97851 11.6243 5.78625C11.1389 5.06439 10.4872 4.46977 9.72393 4.05248C8.9607 3.63519 8.10835 3.40747 7.2387 3.3885C6.34642 3.36382 5.46092 3.55022 4.65431 3.93254C3.84771 4.31486 3.1428 4.88228 2.59699 5.58859C1.07483 7.57253 1.13967 10.3272 2.76199 12.6066C5.715 16.7554 11.5553 20.4044 11.8023 20.5575C11.8616 20.5943 11.9301 20.6139 12 20.6139C12.0699 20.6139 12.1384 20.5943 12.1977 20.5575C12.4448 20.4042 18.2849 16.7553 21.2379 12.6065C22.8603 10.3272 22.9252 7.57253 21.403 5.58859Z" fill="#FF6464"/>
</svg>
