<svg width="24" height="24" viewBox="0 0 24 24" fill="none" xmlns="http://www.w3.org/2000/svg">
<path d="M3.57669 12.0268C4.96881 13.9826 7.07667 15.8613 8.91168 17.2918C10.2727 18.3527 11.4481 19.1399 12 19.4978C12.552 19.1398 13.7274 18.3525 15.0883 17.2917C16.9233 15.8612 19.0311 13.9825 20.4232 12.0266L20.4232 12.0266C21.8316 10.0479 21.8237 7.78045 20.6102 6.19805C20.1618 5.61627 19.582 5.14896 18.9183 4.83437C18.2542 4.51963 17.525 4.36671 16.7905 4.38815L16.7831 4.38836L16.7831 4.38834C16.0737 4.40381 15.3784 4.58956 14.7558 4.92995C14.1332 5.27034 13.6015 5.75539 13.2056 6.34423L13.2038 6.34698C13.0857 6.52125 12.9715 6.7022 12.8622 6.88822L12.0003 8.35556L11.1379 6.88846C11.0284 6.70212 10.9142 6.5211 10.7963 6.34697L10.7944 6.34422C10.3985 5.75536 9.86681 5.2703 9.24421 4.9299L9.72393 4.05248L9.24421 4.9299C8.62161 4.5895 7.92631 4.40374 7.21689 4.38826L7.21105 4.38813C6.47619 4.36779 5.74692 4.52131 5.08262 4.83618C4.41884 5.15079 3.83869 5.61761 3.38933 6.19868C2.17626 7.78105 2.16851 10.0482 3.57669 12.0268ZM3.57669 12.0268L2.76199 12.6066M3.57669 12.0268L2.76199 12.6066M2.76199 12.6066C1.13967 10.3272 1.07483 7.57253 2.59699 5.58859L11.8023 20.5575C11.5553 20.4044 5.715 16.7554 2.76199 12.6066ZM12.3296 19.7078L12.3291 19.7075L12.3296 19.7078Z" stroke="#7D8FAB" stroke-width="2"/>
</svg>
