<svg width="24" height="24" viewBox="0 0 24 24" fill="none" xmlns="http://www.w3.org/2000/svg">
<path d="M12 6.75C13.6569 6.75 15 5.40685 15 3.75C15 2.09315 13.6569 0.75 12 0.75C10.3431 0.75 9 2.09315 9 3.75C9 5.40685 10.3431 6.75 12 6.75Z" fill="#303733"/>
<path d="M12 15C13.6569 15 15 13.6569 15 12C15 10.3431 13.6569 9 12 9C10.3431 9 9 10.3431 9 12C9 13.6569 10.3431 15 12 15Z" fill="#303733"/>
<path d="M12 23.25C13.6569 23.25 15 21.9069 15 20.25C15 18.5931 13.6569 17.25 12 17.25C10.3431 17.25 9 18.5931 9 20.25C9 21.9069 10.3431 23.25 12 23.25Z" fill="#303733"/>
</svg>
