<svg width="16" height="16" viewBox="0 0 16 16" fill="none" xmlns="http://www.w3.org/2000/svg">
<path d="M4.12 15C3.99635 15.0004 3.87419 14.9731 3.76243 14.9203C3.65066 14.8674 3.55212 14.7902 3.47401 14.6944C3.3959 14.5985 3.34019 14.4864 3.31095 14.3663C3.2817 14.2462 3.27967 14.121 3.305 14L3.97 10.11L1.145 7.365C1.03431 7.25687 0.956048 7.11995 0.919057 6.9697C0.882066 6.81944 0.887815 6.66184 0.935655 6.51468C0.983495 6.36752 1.07152 6.23666 1.18979 6.13688C1.30807 6.0371 1.45188 5.97237 1.605 5.95L5.5 5.385L7.245 1.845C7.31229 1.70304 7.41849 1.5831 7.55125 1.49911C7.68402 1.41512 7.83789 1.37053 7.995 1.37053C8.1521 1.37053 8.30597 1.41512 8.43874 1.49911C8.5715 1.5831 8.6777 1.70304 8.745 1.845L10.5 5.385L14.405 5.955C14.5581 5.97737 14.7019 6.0421 14.8202 6.14188C14.9385 6.24166 15.0265 6.37252 15.0743 6.51968C15.1222 6.66684 15.1279 6.82444 15.0909 6.9747C15.0539 7.12495 14.9757 7.26187 14.865 7.37L12.04 10.125L12.695 14C12.7211 14.1518 12.7044 14.3078 12.6469 14.4507C12.5893 14.5935 12.4932 14.7176 12.3691 14.8089C12.2451 14.9002 12.0982 14.9552 11.9447 14.9678C11.7912 14.9803 11.6372 14.95 11.5 14.88L8 13.045L4.5 14.88C4.38504 14.9505 4.25457 14.9917 4.12 15ZM2.095 6.89L4.735 9.465C4.832 9.55859 4.90459 9.67452 4.94643 9.80265C4.98827 9.93078 4.99808 10.0672 4.975 10.2L4.35 13.83L7.615 12.115C7.73379 12.0528 7.8659 12.0203 8 12.0203C8.13409 12.0203 8.2662 12.0528 8.385 12.115L11.65 13.83L11.025 10.195C11.0019 10.0622 11.0117 9.92578 11.0536 9.79765C11.0954 9.66952 11.168 9.55359 11.265 9.46L13.905 6.885L10.255 6.355C10.1217 6.33556 9.99518 6.28398 9.88629 6.20471C9.7774 6.12544 9.68944 6.02086 9.63 5.9L8 2.6L6.37 5.905C6.31055 6.02586 6.22259 6.13044 6.1137 6.20971C6.00482 6.28898 5.87827 6.34056 5.745 6.36L2.095 6.89Z" fill="#FFA902"/>
<path d="M8.29501 2.06501L10.08 5.68501C10.1034 5.73246 10.1379 5.77358 10.1805 5.80491C10.2232 5.83623 10.2727 5.85685 10.325 5.86501L14.325 6.44501C14.3837 6.45605 14.4383 6.48282 14.483 6.52246C14.5277 6.5621 14.5608 6.61312 14.5788 6.67009C14.5967 6.72706 14.5989 6.78784 14.585 6.84594C14.5711 6.90405 14.5418 6.9573 14.5 7.00001L11.61 9.81501C11.572 9.85213 11.5435 9.89788 11.527 9.94837C11.5104 9.99886 11.5063 10.0526 11.515 10.105L12.195 14.105C12.208 14.1685 12.2021 14.2343 12.1779 14.2944C12.1538 14.3545 12.1125 14.4062 12.0592 14.4429C12.0058 14.4797 11.9429 14.5 11.8781 14.5013C11.8134 14.5025 11.7497 14.4847 11.695 14.45L8.12501 12.57C8.07792 12.5455 8.02561 12.5327 7.97251 12.5327C7.91941 12.5327 7.8671 12.5455 7.82001 12.57L4.27501 14.435C4.22032 14.4697 4.15662 14.4875 4.09187 14.4863C4.02712 14.485 3.96417 14.4647 3.91086 14.4279C3.85756 14.3912 3.81625 14.3395 3.79209 14.2794C3.76794 14.2193 3.762 14.1535 3.77501 14.09L4.45501 10.09C4.46369 10.0376 4.45958 9.98386 4.44304 9.93337C4.42651 9.88288 4.39802 9.83713 4.36001 9.80001L1.50001 7.00001C1.4568 6.95712 1.4263 6.9031 1.41188 6.84394C1.39746 6.78479 1.39969 6.7228 1.41833 6.66483C1.43696 6.60686 1.47127 6.55518 1.51745 6.5155C1.56363 6.47582 1.6199 6.4497 1.68001 6.44001L5.68001 5.86001C5.73229 5.85185 5.78183 5.83123 5.82447 5.79991C5.86711 5.76858 5.90159 5.72746 5.92501 5.68001L7.71001 2.06001C7.73838 2.00681 7.78078 1.96239 7.83261 1.93159C7.88445 1.90078 7.94373 1.88477 8.00402 1.88528C8.06432 1.8858 8.12332 1.90282 8.17462 1.93451C8.22592 1.96619 8.26755 2.01133 8.29501 2.06501Z" fill="#FFA902"/>
</svg>
