<svg width="16" height="16" viewBox="0 0 16 16" fill="none" xmlns="http://www.w3.org/2000/svg">
<g clip-path="url(#clip0_0_676)">
<path d="M14.6666 9.15527e-05H9.12485C8.75825 9.15527e-05 8.24587 0.212473 7.98685 0.471299L0.389089 8.06902C-0.129696 8.58722 -0.129696 9.43682 0.389089 9.95439L6.04624 15.6113C6.56385 16.1295 7.41263 16.1295 7.93103 15.6108L15.5288 8.01421C15.7876 7.75543 16 7.24223 16 6.87641V1.33348C16 0.600283 15.3998 9.15527e-05 14.6666 9.15527e-05ZM11.9998 5.33345C11.2634 5.33345 10.6664 4.73584 10.6664 4.00006C10.6664 3.26308 11.2634 2.66667 11.9998 2.66667C12.7362 2.66667 13.3334 3.26308 13.3334 4.00006C13.3334 4.73584 12.7362 5.33345 11.9998 5.33345Z" fill="#C29C1D"/>
</g>
<defs>
<clipPath id="clip0_0_676">
<rect width="16" height="16" fill="white"/>
</clipPath>
</defs>
</svg>
