<svg width="40" height="36" viewBox="0 0 40 36" fill="none" xmlns="http://www.w3.org/2000/svg">
<path d="M39.5666 15.9245C39.4177 15.4099 39.015 15.0072 38.5004 14.8584C38.2119 14.7748 31.3749 12.8719 26.2825 17.9649C23.7119 20.5364 23.265 24.4001 25.0059 27.2132L21.5528 30.6669V18.4765C24.7729 17.7187 27.1882 14.6689 27.1882 11.0322C27.1882 3.8289 21.0083 0.338903 20.7451 0.194008C20.2759 -0.0646692 19.7067 -0.0646692 19.2375 0.194008C18.9743 0.338903 12.7944 3.8289 12.7944 11.0322C12.7944 14.6689 15.2098 17.7187 18.4298 18.4765V30.6669L14.9794 27.216C16.6697 24.4999 16.3555 20.6209 13.6998 17.9649C8.6077 12.8719 1.77076 14.7751 1.48219 14.8584C0.967578 15.0072 0.565226 15.4099 0.41606 15.9245C0.332783 16.2134 -1.57008 23.0518 3.52201 28.1448C6.13227 30.7554 9.99503 31.1385 12.7682 29.4217L18.8776 35.5321C19.4929 36.1592 20.4965 36.1528 21.1056 35.5318L27.2126 29.4236C29.9443 31.1242 33.8168 30.7889 36.4606 28.1448C41.5527 23.0515 39.6498 16.2131 39.5666 15.9245ZM12.655 24.8906L10.747 22.9823C10.1372 22.3725 9.14854 22.3725 8.53845 22.9823C7.92867 23.5924 7.92867 24.5813 8.53845 25.1911L10.4459 27.0988C8.92433 27.661 7.05319 27.259 5.73022 25.936C3.52201 23.7272 2.81035 20.692 3.2432 17.6861C6.22958 17.2557 9.26812 17.95 11.4916 20.1737C12.8548 21.5373 13.2016 23.4145 12.655 24.8906ZM19.9913 10.9297C19.1289 10.9297 18.4298 11.6292 18.4298 12.4915V15.1896C16.9564 14.5112 15.9175 12.9033 15.9175 11.0322C15.9175 7.9055 17.5641 5.25437 19.9941 3.43692C21.353 4.44997 24.0652 6.98031 24.0652 11.0322C24.0652 12.9033 23.0265 14.5112 21.5528 15.1896V12.4915C21.5528 11.6292 20.8537 10.9297 19.9913 10.9297ZM34.2521 25.936C32.8888 27.2996 31.0119 27.6464 29.5361 27.0994L31.4442 25.1914C32.0536 24.5813 32.0536 23.5924 31.4442 22.9826C30.8344 22.3728 29.8457 22.3728 29.2356 22.9826L27.3285 24.89C26.766 23.3682 27.1681 21.497 28.491 20.1737C30.7179 17.9466 33.7726 17.2578 36.7428 17.6867C36.9874 19.3638 37.1164 23.071 34.2521 25.936Z" fill="white"/>
</svg>
